0
SECTION
2
HEADER
9
$INSUNITS
70
4
9
$ACADVER
1
AC1014
9
$HANDSEED
5
FFFF
0
ENDSEC
0
SECTION
2
TABLES
0
TABLE
2
VPORT
5
8
100
AcDbSymbolTable
0
ENDTAB
0
TABLE
2
LTYPE
5
5
100
AcDbSymbolTable
0
LTYPE
5
14
100
AcDbSymbolTableRecord
100
AcDbLinetypeTableRecord
2
BYBLOCK
70
0
0
LTYPE
5
15
100
AcDbSymbolTableRecord
100
AcDbLinetypeTableRecord
2
BYLAYER
70
0
0
ENDTAB
0
TABLE
2
LAYER
5
2
100
AcDbSymbolTable
70
2
0
LAYER
5
50
100
AcDbSymbolTableRecord
100
AcDbLayerTableRecord
2
0
70
0
6
CONTINUOUS
0
ENDTAB
0
TABLE
2
STYLE
5
3
100
AcDbSymbolTable
70
1
0
STYLE
5
11
100
AcDbSymbolTableRecord
100
AcDbTextStyleTableRecord
2
STANDARD
70
0
0
ENDTAB
0
TABLE
2
VIEW
5
6
100
AcDbSymbolTable
70
0
0
ENDTAB
0
TABLE
2
UCS
5
7
100
AcDbSymbolTable
70
0
0
ENDTAB
0
TABLE
2
APPID
5
9
100
AcDbSymbolTable
70
2
0
APPID
5
12
100
AcDbSymbolTableRecord
100
AcDbRegAppTableRecord
2
ACAD
70
0
0
ENDTAB
0
TABLE
2
DIMSTYLE
5
A
100
AcDbSymbolTable
70
1
0
ENDTAB
0
TABLE
2
BLOCK_RECORD
5
1
100
AcDbSymbolTable
70
1
0
BLOCK_RECORD
5
1F
100
AcDbSymbolTableRecord
100
AcDbBlockTableRecord
2
*MODEL_SPACE
0
BLOCK_RECORD
5
1B
100
AcDbSymbolTableRecord
100
AcDbBlockTableRecord
2
*PAPER_SPACE
0
ENDTAB
0
ENDSEC
0
SECTION
2
BLOCKS
0
BLOCK
5
20
100
AcDbEntity
100
AcDbBlockBegin
2
*MODEL_SPACE
0
ENDBLK
5
21
100
AcDbEntity
100
AcDbBlockEnd
0
BLOCK
5
1C
100
AcDbEntity
100
AcDbBlockBegin
2
*PAPER_SPACE
0
ENDBLK
5
1D
100
AcDbEntity
100
AcDbBlockEnd
0
ENDSEC
0
SECTION
2
ENTITIES
0
LWPOLYLINE
5
100
100
AcDbEntity
8
0
100
AcDbPolyline
90
8
70
1
43
0.0
10
-226.64700000000005
20
-2.1309140000000011
42
-0.41421356237309437
10
-223.64700000000002
20
0.86908600000000003
10
-2.0950846000000025
20
0.86908600000000313
42
-0.41421356237309515
10
0.90491539999999981
20
-2.1309139999999971
10
0.90491539999999926
20
-136.13299999999956
42
-0.41421356237309287
10
-2.0950845999999856
20
-139.13299999999956
10
-223.64700000000005
20
-139.13299999999953
42
-0.41421356237308815
10
-226.64700000000005
20
-136.13299999999956
0
CIRCLE
5
101
100
AcDbEntity
8
0
100
AcDbCircle
10
-3.0950845999999888
20
-3.1309140000000109
30
0
40
1.5000000000000009
210
0
220
-0
230
1
0
CIRCLE
5
102
100
AcDbEntity
8
0
100
AcDbCircle
10
-222.64700000000011
20
-69.131956999999829
30
0
40
1.5000000000000213
210
0
220
-0
230
1
0
CIRCLE
5
103
100
AcDbEntity
8
0
100
AcDbCircle
10
-3.0950845999999963
20
-135.13299999999956
30
0
40
1.5000000000000036
210
0
220
-0
230
1
0
CIRCLE
5
104
100
AcDbEntity
8
0
100
AcDbCircle
10
-222.64700000000005
20
-135.13299999999964
30
0
40
1.4999999999999858
210
0
220
-0
230
1
0
CIRCLE
5
105
100
AcDbEntity
8
0
100
AcDbCircle
10
-76.279056400000002
20
-3.1309140000000064
30
0
40
1.5000000000000036
210
0
220
-0
230
1
0
CIRCLE
5
106
100
AcDbEntity
8
0
100
AcDbCircle
10
-3.0950845999999888
20
-69.131956999999773
30
0
40
1.4999999999999996
210
0
220
-0
230
1
0
CIRCLE
5
107
100
AcDbEntity
8
0
100
AcDbCircle
10
-222.64700000000005
20
-3.1309140000000077
30
0
40
1.4999999999999858
210
0
220
-0
230
1
0
CIRCLE
5
108
100
AcDbEntity
8
0
100
AcDbCircle
10
-76.27905640000003
20
-135.13299999999956
30
0
40
1.5000000000000036
210
0
220
-0
230
1
0
CIRCLE
5
109
100
AcDbEntity
8
0
100
AcDbCircle
10
-149.46302820000005
20
-135.13299999999961
30
0
40
1.5000000000000036
210
0
220
-0
230
1
0
CIRCLE
5
110
100
AcDbEntity
8
0
100
AcDbCircle
10
-149.46302820000002
20
-3.130914000000006
30
0
40
1.5000000000000036
210
0
220
-0
230
1
0
LWPOLYLINE
5
111
100
AcDbEntity
8
0
100
AcDbPolyline
90
8
70
1
43
0.0
10
-9.0950846000000034
20
-124.63299999999958
10
-9.0950845999999945
20
-71.101999999999549
42
0.41421356237309503
10
-13.595084599999989
20
-66.601999999999549
10
-92.351084600000036
20
-66.601999999999563
42
0.41421356237309159
10
-96.851084600000007
20
-71.101999999999549
10
-96.851084600000021
20
-124.6329999999996
42
0.41421356237309276
10
-92.351084600000007
20
-129.13299999999958
10
-13.595084599999996
20
-129.13299999999956
42
0.4142135623730917
0
LWPOLYLINE
5
112
100
AcDbEntity
8
0
100
AcDbPolyline
90
4
70
1
43
0.0
10
-124.91900000000001
20
-105.908
10
-138.91999999999999
20
-105.908
10
-138.91999999999999
20
-119.908
10
-124.91900000000001
20
-119.908
0
LWPOLYLINE
5
113
100
AcDbEntity
8
0
100
AcDbPolyline
90
4
70
1
43
0.0
10
-124.91900000000001
20
-62.757399999999997
10
-124.91900000000001
20
-48.757800000000003
10
-138.91999999999999
20
-48.757800000000003
10
-138.91999999999999
20
-62.757399999999997
0
LWPOLYLINE
5
114
100
AcDbEntity
8
0
100
AcDbPolyline
90
4
70
1
43
0.0
10
-119.87000000000002
20
-48.757800000000003
10
-119.87000000000002
20
-62.757399999999997
10
-105.869
20
-62.757399999999997
10
-105.869
20
-48.757800000000003
0
LWPOLYLINE
5
115
100
AcDbEntity
8
0
100
AcDbPolyline
90
4
70
1
43
0.0
10
-81.769999999999996
20
-24.658600000000011
10
-67.770399999999995
20
-24.658600000000011
10
-67.770399999999995
20
-10.657700000000006
10
-81.769999999999996
20
-10.657700000000006
0
LWPOLYLINE
5
116
100
AcDbEntity
8
0
100
AcDbPolyline
90
4
70
1
43
0.0
10
-196.06999999999999
20
-29.707699999999999
10
-196.06999999999999
20
-43.707400000000007
10
-182.06999999999999
20
-43.707400000000007
10
-182.06999999999999
20
-29.707699999999999
0
LWPOLYLINE
5
117
100
AcDbEntity
8
0
100
AcDbPolyline
90
4
70
1
43
0.0
10
-24.619999999999997
20
-10.657700000000006
10
-24.619999999999997
20
-24.658600000000011
10
-10.619200000000006
20
-24.658600000000011
10
-10.619200000000006
20
-10.657700000000006
0
LWPOLYLINE
5
118
100
AcDbEntity
8
0
100
AcDbPolyline
90
4
70
1
43
0.0
10
-43.670000000000009
20
-29.707699999999999
10
-43.670000000000009
20
-43.707400000000007
10
-29.6706
20
-43.707400000000007
10
-29.6706
20
-29.707699999999999
0
LWPOLYLINE
5
119
100
AcDbEntity
8
0
100
AcDbPolyline
90
4
70
1
43
0.0
10
-201.12
20
-48.757800000000003
10
-215.12
20
-48.757800000000003
10
-215.12
20
-62.757399999999997
10
-201.12
20
-62.757399999999997
0
LWPOLYLINE
5
120
100
AcDbEntity
8
0
100
AcDbPolyline
90
4
70
1
43
0.0
10
-100.82000000000001
20
-10.657700000000006
10
-100.82000000000001
20
-24.658600000000011
10
-86.820400000000006
20
-24.658600000000011
10
-86.820400000000006
20
-10.657700000000006
0
LWPOLYLINE
5
121
100
AcDbEntity
8
0
100
AcDbPolyline
90
4
70
1
43
0.0
10
-157.97
20
-119.908
10
-143.97
20
-119.908
10
-143.97
20
-105.908
10
-157.97
20
-105.908
0
LWPOLYLINE
5
122
100
AcDbEntity
8
0
100
AcDbPolyline
90
4
70
1
43
0.0
10
-119.87000000000002
20
-119.908
10
-105.87000000000002
20
-119.908
10
-105.87000000000002
20
-105.908
10
-119.87000000000002
20
-105.908
0
LWPOLYLINE
5
123
100
AcDbEntity
8
0
100
AcDbPolyline
90
4
70
1
43
0.0
10
-182.06999999999999
20
-105.908
10
-196.06999999999999
20
-105.908
10
-196.06999999999999
20
-119.908
10
-182.06999999999999
20
-119.908
0
LWPOLYLINE
5
124
100
AcDbEntity
8
0
100
AcDbPolyline
90
4
70
1
43
0.0
10
-215.12
20
-105.908
10
-215.12
20
-119.908
10
-201.12
20
-119.908
10
-201.12
20
-105.908
0
LWPOLYLINE
5
125
100
AcDbEntity
8
0
100
AcDbPolyline
90
4
70
1
43
0.0
10
-119.87000000000002
20
-100.85700000000003
10
-105.87000000000002
20
-100.85700000000003
10
-105.87000000000002
20
-86.857799999999997
10
-119.87000000000002
20
-86.857799999999997
0
LWPOLYLINE
5
126
100
AcDbEntity
8
0
100
AcDbPolyline
90
4
70
1
43
0.0
10
-177.02000000000001
20
-119.908
10
-163.02000000000004
20
-119.908
10
-163.02000000000004
20
-105.908
10
-177.02000000000001
20
-105.908
0
LWPOLYLINE
5
127
100
AcDbEntity
8
0
100
AcDbPolyline
90
4
70
1
43
0.0
10
-143.97
20
-67.8078
10
-157.97
20
-67.8078
10
-157.97
20
-81.807400000000001
10
-143.97
20
-81.807400000000001
0
LWPOLYLINE
5
128
100
AcDbEntity
8
0
100
AcDbPolyline
90
4
70
1
43
0.0
10
-124.91900000000001
20
-100.85700000000003
10
-124.91900000000001
20
-86.857799999999997
10
-138.91999999999999
20
-86.857799999999997
10
-138.91999999999999
20
-100.85700000000003
0
LWPOLYLINE
5
129
100
AcDbEntity
8
0
100
AcDbPolyline
90
4
70
1
43
0.0
10
-196.06999999999999
20
-81.807400000000001
10
-182.06999999999999
20
-81.807400000000001
10
-182.06999999999999
20
-67.8078
10
-196.06999999999999
20
-67.8078
0
LWPOLYLINE
5
130
100
AcDbEntity
8
0
100
AcDbPolyline
90
4
70
1
43
0.0
10
-215.12
20
-86.857799999999997
10
-215.12
20
-100.85700000000003
10
-201.12
20
-100.85700000000003
10
-201.12
20
-86.857799999999997
0
LWPOLYLINE
5
131
100
AcDbEntity
8
0
100
AcDbPolyline
90
4
70
1
43
0.0
10
-143.97
20
-86.857799999999997
10
-157.97
20
-86.857799999999997
10
-157.97
20
-100.85700000000003
10
-143.97
20
-100.85700000000003
0
LWPOLYLINE
5
132
100
AcDbEntity
8
0
100
AcDbPolyline
90
4
70
1
43
0.0
10
-196.06999999999999
20
-86.857799999999997
10
-196.06999999999999
20
-100.85700000000003
10
-182.06999999999999
20
-100.85700000000003
10
-182.06999999999999
20
-86.857799999999997
0
LWPOLYLINE
5
133
100
AcDbEntity
8
0
100
AcDbPolyline
90
4
70
1
43
0.0
10
-105.87000000000002
20
-81.807400000000001
10
-105.87000000000002
20
-67.8078
10
-119.87000000000002
20
-67.8078
10
-119.87000000000002
20
-81.807400000000001
0
LWPOLYLINE
5
134
100
AcDbEntity
8
0
100
AcDbPolyline
90
4
70
1
43
0.0
10
-201.12
20
-81.807400000000001
10
-201.12
20
-67.8078
10
-215.12
20
-67.8078
10
-215.12
20
-81.807400000000001
0
LWPOLYLINE
5
135
100
AcDbEntity
8
0
100
AcDbPolyline
90
4
70
1
43
0.0
10
-177.02000000000001
20
-81.807400000000001
10
-163.02000000000004
20
-81.807400000000001
10
-163.02000000000004
20
-67.8078
10
-177.02000000000001
20
-67.8078
0
LWPOLYLINE
5
136
100
AcDbEntity
8
0
100
AcDbPolyline
90
4
70
1
43
0.0
10
-177.02000000000001
20
-100.85700000000003
10
-163.02000000000004
20
-100.85700000000003
10
-163.02000000000004
20
-86.857799999999997
10
-177.02000000000001
20
-86.857799999999997
0
LWPOLYLINE
5
137
100
AcDbEntity
8
0
100
AcDbPolyline
90
4
70
1
43
0.0
10
-124.91900000000001
20
-67.8078
10
-138.91999999999999
20
-67.8078
10
-138.91999999999999
20
-81.807400000000001
10
-124.91900000000001
20
-81.807400000000001
0
LWPOLYLINE
5
138
100
AcDbEntity
8
0
100
AcDbPolyline
90
4
70
1
43
0.0
10
-29.6706
20
-48.757800000000003
10
-43.670000000000009
20
-48.757800000000003
10
-43.670000000000009
20
-62.757399999999997
10
-29.6706
20
-62.757399999999997
0
LWPOLYLINE
5
139
100
AcDbEntity
8
0
100
AcDbPolyline
90
4
70
1
43
0.0
10
-157.97
20
-48.757800000000003
10
-157.97
20
-62.757399999999997
10
-143.97
20
-62.757399999999997
10
-143.97
20
-48.757800000000003
0
LWPOLYLINE
5
140
100
AcDbEntity
8
0
100
AcDbPolyline
90
4
70
1
43
0.0
10
-81.769999999999996
20
-62.757399999999997
10
-67.770399999999995
20
-62.757399999999997
10
-67.770399999999995
20
-48.757800000000003
10
-81.769999999999996
20
-48.757800000000003
0
LWPOLYLINE
5
141
100
AcDbEntity
8
0
100
AcDbPolyline
90
4
70
1
43
0.0
10
-177.02000000000001
20
-62.757399999999997
10
-163.02000000000004
20
-62.757399999999997
10
-163.02000000000004
20
-48.757800000000003
10
-177.02000000000001
20
-48.757800000000003
0
LWPOLYLINE
5
142
100
AcDbEntity
8
0
100
AcDbPolyline
90
4
70
1
43
0.0
10
-196.06999999999999
20
-48.757800000000003
10
-196.06999999999999
20
-62.757399999999997
10
-182.06999999999999
20
-62.757399999999997
10
-182.06999999999999
20
-48.757800000000003
0
LWPOLYLINE
5
143
100
AcDbEntity
8
0
100
AcDbPolyline
90
4
70
1
43
0.0
10
-24.619999999999997
20
-62.757399999999997
10
-10.619200000000006
20
-62.757399999999997
10
-10.619200000000006
20
-48.757800000000003
10
-24.619999999999997
20
-48.757800000000003
0
LWPOLYLINE
5
144
100
AcDbEntity
8
0
100
AcDbPolyline
90
4
70
1
43
0.0
10
-100.82000000000001
20
-48.757800000000003
10
-100.82000000000001
20
-62.757399999999997
10
-86.820400000000006
20
-62.757399999999997
10
-86.820400000000006
20
-48.757800000000003
0
LWPOLYLINE
5
145
100
AcDbEntity
8
0
100
AcDbPolyline
90
4
70
1
43
0.0
10
-48.720399999999998
20
-48.757800000000003
10
-62.719999999999999
20
-48.757800000000003
10
-62.719999999999999
20
-62.757399999999997
10
-48.720399999999998
20
-62.757399999999997
0
LWPOLYLINE
5
146
100
AcDbEntity
8
0
100
AcDbPolyline
90
4
70
1
43
0.0
10
-157.97
20
-24.658600000000011
10
-143.97
20
-24.658600000000011
10
-143.97
20
-10.657700000000006
10
-157.97
20
-10.657700000000006
0
LWPOLYLINE
5
147
100
AcDbEntity
8
0
100
AcDbPolyline
90
4
70
1
43
0.0
10
-138.91999999999999
20
-43.707400000000007
10
-124.91900000000001
20
-43.707400000000007
10
-124.91900000000001
20
-29.707699999999999
10
-138.91999999999999
20
-29.707699999999999
0
LWPOLYLINE
5
148
100
AcDbEntity
8
0
100
AcDbPolyline
90
4
70
1
43
0.0
10
-124.91900000000001
20
-10.657700000000006
10
-138.91999999999999
20
-10.657700000000006
10
-138.91999999999999
20
-24.658600000000011
10
-124.91900000000001
20
-24.658600000000011
0
LWPOLYLINE
5
149
100
AcDbEntity
8
0
100
AcDbPolyline
90
4
70
1
43
0.0
10
-196.06999999999999
20
-10.657700000000006
10
-196.06999999999999
20
-24.658600000000011
10
-182.06999999999999
20
-24.658600000000011
10
-182.06999999999999
20
-10.657700000000006
0
LWPOLYLINE
5
150
100
AcDbEntity
8
0
100
AcDbPolyline
90
4
70
1
43
0.0
10
-105.869
20
-24.658600000000011
10
-105.869
20
-10.657700000000006
10
-119.87000000000002
20
-10.657700000000006
10
-119.87000000000002
20
-24.658600000000011
0
LWPOLYLINE
5
151
100
AcDbEntity
8
0
100
AcDbPolyline
90
4
70
1
43
0.0
10
-177.02000000000001
20
-10.657700000000006
10
-177.02000000000001
20
-24.658600000000011
10
-163.02000000000004
20
-24.658600000000011
10
-163.02000000000004
20
-10.657700000000006
0
LWPOLYLINE
5
152
100
AcDbEntity
8
0
100
AcDbPolyline
90
4
70
1
43
0.0
10
-201.12
20
-10.657700000000006
10
-215.12
20
-10.657700000000006
10
-215.12
20
-24.658600000000011
10
-201.12
20
-24.658600000000011
0
LWPOLYLINE
5
153
100
AcDbEntity
8
0
100
AcDbPolyline
90
4
70
1
43
0.0
10
-10.619200000000006
20
-29.707699999999999
10
-24.619999999999997
20
-29.707699999999999
10
-24.619999999999997
20
-43.707400000000007
10
-10.619200000000006
20
-43.707400000000007
0
LWPOLYLINE
5
154
100
AcDbEntity
8
0
100
AcDbPolyline
90
4
70
1
43
0.0
10
-48.720399999999998
20
-24.658600000000011
10
-48.720399999999998
20
-10.657700000000006
10
-62.719999999999999
20
-10.657700000000006
10
-62.719999999999999
20
-24.658600000000011
0
LWPOLYLINE
5
155
100
AcDbEntity
8
0
100
AcDbPolyline
90
4
70
1
43
0.0
10
-67.770399999999995
20
-29.707699999999999
10
-81.769999999999996
20
-29.707699999999999
10
-81.769999999999996
20
-43.707400000000007
10
-67.770399999999995
20
-43.707400000000007
0
LWPOLYLINE
5
156
100
AcDbEntity
8
0
100
AcDbPolyline
90
4
70
1
43
0.0
10
-177.02000000000001
20
-29.707699999999999
10
-177.02000000000001
20
-43.707400000000007
10
-163.02000000000004
20
-43.707400000000007
10
-163.02000000000004
20
-29.707699999999999
0
LWPOLYLINE
5
157
100
AcDbEntity
8
0
100
AcDbPolyline
90
4
70
1
43
0.0
10
-143.97
20
-43.707400000000007
10
-143.97
20
-29.707699999999999
10
-157.97
20
-29.707699999999999
10
-157.97
20
-43.707400000000007
0
LWPOLYLINE
5
158
100
AcDbEntity
8
0
100
AcDbPolyline
90
4
70
1
43
0.0
10
-86.820400000000006
20
-43.707400000000007
10
-86.820400000000006
20
-29.707699999999999
10
-100.82000000000001
20
-29.707699999999999
10
-100.82000000000001
20
-43.707400000000007
0
LWPOLYLINE
5
159
100
AcDbEntity
8
0
100
AcDbPolyline
90
4
70
1
43
0.0
10
-119.87000000000002
20
-43.707400000000007
10
-105.869
20
-43.707400000000007
10
-105.869
20
-29.707699999999999
10
-119.87000000000002
20
-29.707699999999999
0
LWPOLYLINE
5
160
100
AcDbEntity
8
0
100
AcDbPolyline
90
4
70
1
43
0.0
10
-201.12
20
-29.707699999999999
10
-215.12
20
-29.707699999999999
10
-215.12
20
-43.707400000000007
10
-201.12
20
-43.707400000000007
0
LWPOLYLINE
5
161
100
AcDbEntity
8
0
100
AcDbPolyline
90
4
70
1
43
0.0
10
-62.719999999999999
20
-29.707699999999999
10
-62.719999999999999
20
-43.707400000000007
10
-48.720399999999998
20
-43.707400000000007
10
-48.720399999999998
20
-29.707699999999999
0
LWPOLYLINE
5
162
100
AcDbEntity
8
0
100
AcDbPolyline
90
4
70
1
43
0.0
10
-29.6706
20
-10.657700000000006
10
-43.670000000000009
20
-10.657700000000006
10
-43.670000000000009
20
-24.658600000000011
10
-29.6706
20
-24.658600000000011
0
ENDSEC
0
SECTION
2
OBJECTS
0
DICTIONARY
5
C
100
AcDbDictionary
3
ACAD_GROUP
350
D
3
ACAD_MLINESTYLE
350
17
0
DICTIONARY
5
D
100
AcDbDictionary
0
DICTIONARY
5
1A
330
C
100
AcDbDictionary
0
DICTIONARY
5
17
100
AcDbDictionary
0
ENDSEC
0
EOF
